/* XPM */
static char *_a0ccab51a6241968e406a1ef68a2ae9KjD7CDVJvqM06TkQ[] = {
/* columns rows colors chars-per-pixel */
"32 32 62 1 ",
"  c None",
". c #F1AB3E",
"X c #F2AB3F",
"o c #F0AC3C",
"O c #F3AC3E",
"+ c #F3AE3F",
"@ c #F6AE3F",
"# c #F5B03E",
"$ c #F7B03E",
"% c #F8B33D",
"& c #F1964D",
"* c #F49C4B",
"= c #F69E4B",
"- c #F2994C",
"; c #F3994C",
": c #F4994C",
"> c #F6994F",
", c #F89B4E",
"< c #F89F4C",
"1 c #F89950",
"2 c #F1A145",
"3 c #F8A543",
"4 c #F8A147",
"5 c #F8A447",
"6 c #F8A647",
"7 c #F7AD40",
"8 c #F8AB43",
"9 c #F8A845",
"0 c #F8A349",
"q c #F8A44D",
"w c #F8AE4E",
"e c #F8B44B",
"r c #F8A952",
"t c #F8A358",
"y c #F8AD5E",
"u c #F7B759",
"i c #F4A466",
"p c #F8AB6B",
"a c #F8BB62",
"s c #F9B46D",
"d c #F9B075",
"f c #F9BB76",
"g c #F8C269",
"h c #F8C275",
"j c #F8BB85",
"k c #F9C686",
"l c #F9CB9A",
"z c #F9D39D",
"x c #F9D3A5",
"c c #FAD9AE",
"v c #FADBB7",
"b c #FADEBA",
"n c #FAE0C4",
"m c #FAE7D1",
"M c #FBECDB",
"N c #FBF1E5",
"B c #FBF2EA",
"V c #FBF5EC",
"C c #FBF8F4",
"Z c #FBFAF9",
"A c #FBFCFC",
"S c #FBFDFE",
/* pixels */
"                                ",
"                                ",
"             O.OOOO             ",
"          .$%%$%%%%$$.          ",
"        o@%%%%$$$$$$$$@o        ",
"       O%%%$%eaggae$$$$$O       ",
"      O%%$$gxMVCCVMxa@777O      ",
"     O%$$ezVAAAASAAABze778O     ",
"    o$$$ebCSAZNmmNZAAZvw8882    ",
"    @$$ecAAZmkueeukmZAAc8877    ",
"   O@$@kCAZce8@8888wcZACk9997   ",
"   $8@emAAbw88888888wbAAmw99*   ",
"   777hCANa8888889999aBACf365   ",
"  o787zSAv888999999966bAZl5552  ",
"  7888vSAl999999969663lASv660;  ",
"  .888nSZk39999wy56655kSSb000:  ",
"  @993vSAl36365yns655=lASv500:  ",
"  .996zAAv66655yNMs50qbZAl<<<:  ",
"  2993fCANs0655yNSMs5yNACf0<<&  ",
"   666rmAAvw=5=yNZZMsqxZmt<<<   ",
"   =55=kCAZcy05yNSZAMs<lj<<q=   ",
"   ;0050cAAZmkysNAAAAMs<<,,1;   ",
"    <55<tvZAZZBMCAZCAAMd,,,:    ",
"    20<<0tlBSSZSAABlBASMd,,&    ",
"     :<<<<<pxmBCCBntjBCCmp:     ",
"      =<<<,,,tpddpt<1pdddi      ",
"       :,,,,,,,,1,111111:       ",
"        &>,,,,11111111:&        ",
"          ;=11111111=;          ",
"             &::::&             ",
"                                ",
"                                "
};
