/* XPM */
static char *e436b8539bbe42eea25385e9ca27a9e7o6VCcYpEvMSYESnf[] = {
/* columns rows colors chars-per-pixel */
"16 16 47 1 ",
"  c None",
". c #F7AB3F",
"X c #F5AF3D",
"o c #F6AE3F",
"O c #F5B13A",
"+ c #F5B13B",
"@ c #F69B4C",
"# c #F5994E",
"$ c #F69C4C",
"% c #F79E4C",
"& c #F89F4A",
"* c #F89B4C",
"= c #F8994E",
"- c #F5A446",
"; c #F8A445",
": c #F4AB41",
"> c #F5A843",
", c #F6A843",
"< c #F8A844",
"1 c #F8A64C",
"2 c #F8AF4B",
"3 c #F8AA4C",
"4 c #F7B040",
"5 c #F8B648",
"6 c #F8A65E",
"7 c #F8AE5F",
"8 c #F8B156",
"9 c #F8BD5C",
"0 c #F9B475",
"q c #F9C27C",
"w c #F7B684",
"e c #F9BF8B",
"r c #F9CF8D",
"t c #F9D29B",
"y c #F9CFA4",
"u c #FAD8AA",
"i c #F9D1B0",
"p c #FAE0BE",
"a c #FADFC3",
"s c #FAE6CE",
"d c #FAE8D5",
"f c #FAEBD5",
"g c #FBEEE0",
"h c #FBF1E7",
"j c #FBF4EC",
"k c #FBF8F4",
"l c #FBFCFC",
/* pixels */
"                ",
"      ++++      ",
"    o:5995o.    ",
"   o5rdjjfr5o   ",
"  +ouksttsku5<  ",
"  ,qku5.,2ukq;  ",
" ,+ag8<<<<8gp1- ",
" ,5dp<<33;1ad1$ ",
" <3ss3;7u7;ss1@ ",
" -;ykq;7gs7sy&@ ",
"  ;7gge0hls06*  ",
"  @&0dkjlfka6@  ",
"   $&6eii0eiw   ",
"    @**====@    ",
"      #$$#      ",
"                "
};
