/* XPM */
static char *acaa6d357a184987e53770864910d699kQXkMspAHGah7yON[] = {
/* columns rows colors chars-per-pixel */
"64 64 55 1 ",
"  c None",
". c #E5A23B",
"X c #E8A53B",
"o c #EBA73C",
"O c #F0AA3E",
"+ c #F1AE3C",
"@ c #F4AE3D",
"# c #F7B03E",
"$ c #F8B33D",
"% c #EB9A45",
"& c #E69148",
"* c #EA9349",
"= c #ED954A",
"- c #F39B4A",
"; c #F1984C",
": c #F5984E",
"> c #F89B4F",
", c #F89C4D",
"< c #F89E4D",
"1 c #F89850",
"2 c #F5A346",
"3 c #F8A743",
"4 c #F8A746",
"5 c #F7AC40",
"6 c #F7AC42",
"7 c #F8AA43",
"8 c #F8AF40",
"9 c #F8A845",
"0 c #F8A148",
"q c #F8A349",
"w c #F8A04B",
"e c #F8A448",
"r c #F8A550",
"t c #F8A157",
"y c #F8AC5A",
"u c #F8B351",
"i c #F8AD69",
"p c #F8B961",
"a c #F8B775",
"s c #F8BF7D",
"d c #F8BE8C",
"f c #F9CA84",
"g c #F9CB92",
"h c #F9CE9F",
"j c #FAD3AC",
"k c #F9DFBC",
"l c #FAE5CD",
"z c #FAEBD8",
"x c #FBEEE0",
"c c #FAF0E5",
"v c #FBF5ED",
"b c #FBF9F5",
"n c #FBFBFB",
"m c #FCFCFD",
"M c #FCFDFE",
/* pixels */
"                                                                ",
"                                                                ",
"                                                                ",
"                                                                ",
"                            .XooooX.                            ",
"                        oO@$$$$$$$$$$@Oo                        ",
"                     X+$$$$$$$$$$$$$$$$$#+o                     ",
"                   o@$$$$$$$$$$$$$#$#$#$###@o                   ",
"                 X@$$$$$$$$$$$#$#$#$######8$##X                 ",
"                O$$$$$$$$$$#$#$#$###$###8####8#O                ",
"              .@$$$$$$$#$#$$##########8$##8#8888@.              ",
"             X#$$$#$$#$#$##upsfggfspu##@8888888885o             ",
"            X$$#$#$#$#$#ufkzbbnnnnbvzjfu#8##8888885%            ",
"           X#$$#$$#$##uhzbMMnnnnnnnnMMbzgu7#88585665o           ",
"          .#$$#$#####fznMnnnnnnnnnnnnnnmmzf7775566665.          ",
"          @$#######ukbmnnnnnnnnnnnnnnnnnnmbju#5966667@          ",
"         O########plmnnnnnnnnmnnMMMnnnnnnnnmlp556666675         ",
"        X#####8##pzMnnnnmmmnvzkkklzvnMnnnnnnmlp76666579.        ",
"        @8##8###ulMnnnnnMblgpu5556uphzbnnnnnmmlu77777772        ",
"       o####8888knnnnnnnzfu5555966555ugxnnnnnnnj77777775=       ",
"       @#88888#fbnnnnnnkp55666666666665pknnnnnnbf79574444       ",
"      X8888888uzMnnnnnju5666666666666996uknnnnnnzu5444745%      ",
"      +8888885hnnnnnnku@66666666667777777uknnnnnmg344744e-      ",
"      5888885uzMnnnMzp77666666677777777774pznnnnmzu4444499      ",
"     o5888665fbnnnnbf5666666777777777777747gmnnnnbs3444444=     ",
"     58566665kMnnnMlu6667777777777774444e74yzmnnnMj444444eO     ",
"     #666666uznnnnng7577777777777474747444e4hnnnnmlre4eeee2     ",
"     6666666pvMnnnby777777774744e7e744447e77abnnnmvpeeeeeeq     ",
"    .5666695sbnnnmzu77777747444774444444444eyznnnnba04qeeqq&    ",
"    o5556677fnnnnnl774447e474744e44444444444rlmnnnbs00qqqqe*    ",
"    %9597777gnnnnMk777477774444444444444eeeeqkmnnnndqqqqqqq%    ",
"    o9957777gnnnnMk74444eee4444ygre4eeeeeeeerkmnnnndqqqqqqq=    ",
"    o7777773fnnnnml44444444444qycjreeeee04qqwlMmnnns04qqqq0=    ",
"    %7744473sbnnnmzy444444444q4ycmjqeeeeqqqqyxnnnnba00qqq<<%    ",
"    o4477443pvnnnnva7e4444eeq0qycmbjrqeqqq00abnnnnci0<q<<<q*    ",
"    .4474470uzMnnnMh44eeeeeeq44ycnnbjrqqqq40hnnnnnlrq<<2<q<&    ",
"     44444444jMnnnmzyeeeeeeeqq0yxnnnbjrqqqqyzMnnnMj<q<<<ww,     ",
"     24444444sbnnnnbgeeeeeqqqq0ycnnnmbjrqe<abnnnmbsqq<q<ww-     ",
"     O444444qyzmnnnnzi0qqqqqqq0ycmnnnnbjr,,rhbnnnlt<<<<qw,;     ",
"     %44eeeeqqgmnnnnMkyqqqqqq4<ycmnnnmmbjrqqqhbbmdq<q<<<1w=     ",
"      ee04qeeeyznnnnnnkyqqqqqq0ycnnnnnnnbjr<wwhblt,ww11ww1      ",
"      -eqqeeqqqdbnnnnnnkiqqqw,<ycnnnnnnnmbjr,w1js,w,rww,<q      ",
"      *eqqqqqqqqjnnnnnnMzgy0q<qycnnnnnnnnnbjtw,,1w,,>>,,<%      ",
"       2qqqqqqqqylmnnnnnnnzhayricnnnnnnnnnnbjt,,,,,,,,,,:       ",
"       =qqqqqe400ilmnnnnnnnnnzllbnnnnnnnnnnnbjt-,,,,,,,1=       ",
"        2qqqq0<<<0ilnnnnnnnnnnmMnnnnnbvnnnnnnbjt,,,1r11-        ",
"        *qqqq<<qq<qtjbmnnnnnnnnnnnnnnvdzmnnnnnbjt>1rw11*        ",
"         ;<<q<q<<q,q,dznMnnnnnnnnnnnnviizmnnnnnbjt>>11;         ",
"          4<qq<qwwwwwwtgzbMMmnnnnnmmnvi>izmnnnmmbjt>>-          ",
"          &,<<<<ww,ww,,wtsjlxbbnnbbxlj1>>iznnnnmnbjt1&          ",
"           *<<q<r,,,1ww1,,1tiaddddait,>>>1iddddddddt*           ",
"            *<<<w1w,w11w,,,,,1>>>:1>>>>>>>111111111%            ",
"             *,,,,,,,,,,,,>>>,>>1>,>>>>>>>>1111111*             ",
"              &-,-,,,,,r,1>>>>,>>>1>>>>111111111:&              ",
"                ;<,w1,111>>>>>>>>>>>11111111111;                ",
"                 =1,11w1r>>>>>>>1111111111111-*                 ",
"                   =-111r1111111111111111111=                   ",
"                     %-1>1111111111111111-%                     ",
"                        =;-1111111111-;=                        ",
"                            &=====*&                            ",
"                                                                ",
"                                                                ",
"                                                                ",
"                                                                "
};
