/* XPM */
static char *_d18ebe1f7484591baabd910b9388407NSrqGtULnVUuzAWf[] = {
/* columns rows colors chars-per-pixel */
"128 128 42 1 ",
"  c None",
". c #D28B3D",
"X c #D8933C",
"o c #EDA83C",
"O c #F1AE3B",
"+ c #F7B13E",
"@ c #F8B33D",
"# c #DD9340",
"$ c #E29741",
"% c #E79C40",
"& c #EB944A",
"* c #F1974C",
"= c #F89B4F",
"- c #F89D4D",
"; c #F89F4C",
": c #F89851",
"> c #F1A542",
", c #F8A545",
"< c #F8A746",
"1 c #F7AF40",
"2 c #F7AD42",
"3 c #F8AB43",
"4 c #F8A844",
"5 c #F8AA44",
"6 c #F8A349",
"7 c #F8A24A",
"8 c #F8A448",
"9 c #F8A548",
"0 c #F8A255",
"q c #F8AA59",
"w c #F7B45B",
"e c #F8B86D",
"r c #F7C384",
"t c #F8CC98",
"y c #F8D2A9",
"u c #F9D8B4",
"i c #F9E1C7",
"p c #FAEEDF",
"a c #FBF5EE",
"s c #FBFBFB",
"d c gray99",
"f c #FCFDFE",
/* pixels */
"                                                                                                                                ",
"                                                                                                                                ",
"                                                                                                                                ",
"                                                                                                                                ",
"                                                                                                                                ",
"                                                                                                                                ",
"                                                                                                                                ",
"                                                                                                                                ",
"                                                              ....                                                              ",
"                                                     .X$%oOO++@+@@++OOo%$X.                                                     ",
"                                                 .$oO@@@@@@@@@@@@@@@@@@@@@@Oo$X                                                 ",
"                                              X%O@@@@@@@@@@@@@@@@@@@@@@@@@@@@@+O%X                                              ",
"                                           .%O@@@@@@@@@@@@@@@@@@@@@@@@@@@@+@@@+@@@O%X                                           ",
"                                         $o@@@@@@@@@@@@@@@@@@@@@@@@@+@++@+@+++@++@@@+o#                                         ",
"                                       #O@@@@@@@@@@@@@@@@@@@@@@@+@+++@+@++++@++@+++++@@O$                                       ",
"                                     #O@@@@@@@@@@@@@@@@@@@@@@@@+@+++@+++@+@++@+++++++++++O#                                     ",
"                                   Xo@@@@@@@@@@@@@@@@@@@@@@++++++@+@++@++@+@+++++++++++++++oX                                   ",
"                                  %@@@@@@@@@@@@@@@@@@@@+@+@+@+@+@+++@+@+++++++++1++++++++1++@%                                  ",
"                                XO@@@@@@@@@@@@@@@@@@+@+@++++@++@++@++++++++1+111+++++++++++++@O#                                ",
"                               %+@@@@@@@@@@@@@@@@@++@++++@+@++@+++++++++++1+1+1++++++++++++1111+%                               ",
"                              o@@@@@@@@@@@@@@@@@++@++@+@++@+++++++++++11+1+1+1++++++++++11111111@o.                             ",
"                            XO@@@@@@@@@+@@1@@@1@@++@+@++@++++++++1+1+1+1+1+1+1+++++++1111111111111OX                            ",
"                           #+@@@@@@+@+@+@1@@@@O@++@+++@++++++111111++++++1+1+1+++1111111111111111111#                           ",
"                          $+@@@+@+@++@++@O1@2@@1+@+++++@ertyuipipiiuytrw11++++1111111111111111111111@$                          ",
"                         $+@@@@++@+@++@++@++@+2@+++Oetupassfffsfddddfssapurw11111111111111111111111111%                         ",
"                        $+@@++++@+++@++@++@++@@@@wtiadddssssssssssffssssffsaitw111111111111111111111212%                        ",
"                       $+@+++@+@++@++@++@+++++Oeuaffssddsssssssssssssssssssssspye11111111111111111222222$                       ",
"                      #+@++@++@++@+@++++++++@eiaddsssssdsssssssssssssssssssssfdsaue1111111111122512222212#                      ",
"                     X+@++++@++@+++++++@+@+wuadssssssssssssssssssssssssssssssssssdayw111111222222222222222X                     ",
"                     O@++++@+++++++++++@2@rpdssssssssssssssssssssssssssssssssssssssspr22222222222222222223O.                    ",
"                    o@++++++++++@+2+2+O2wuddsssssssssssssssssssssssssssssssssssssssssauw2222222222222222252o                    ",
"                   %@+++++++++++2++@2+@epdsssssssssssssssssssssssssssssssssssssssssssddie2222222222222222255%                   ",
"                  X+++++++++111+1+1++1radssssssssssssssssssssssssssssssssssssssssssssssfpr2215132222233333333#                  ",
"                  O+++++++1+1++1+1+1@tadsssssssssssssssssssssssssssssssssssssssssssssssssar121512252333333333>                  ",
"                 %+++++++++++11+1++1tsdsssssssssssssssssfdddfssssssffsssssssssssssssssssssar253355253333333333%                 ",
"                X1+++++++++++++1+1+tassssssssssssssssssdsapuytrrrrtyipasfsssssssssssssssssfar533555233333555333X                ",
"                o+++++++++++++++11rassssssssssssssssssaurw221211111122etiasssssssssssssssssfar5333333355555555<>                ",
"               #+++++++++++++111+eadssssssssssssssssptw211222222152121111etpssssssssssssssssdpe33355555555555333$               ",
"               O+++++++++1111111wpdsssssssssssssssptw1111222222222221515225wtpsssssssssssssssdiw3555555543335<43>               ",
"              #+1+++++1111111111ussssssssssssssdayw21222512222222222525222153wusssssssssssssssdy5555555534<444445$              ",
"              O+++1111111111111tssssssssssssssdpr212222222222215251525153333331rpdsssssssssssssar55535<4444444445>              ",
"             #111111111111111+wpdssssssssssssdiw22222222222222215252252535153353epsfsssssssssssspw3<444444444444<5#             ",
"             o1111111111111111ufsssssssssssssiw1222222222222221352555252533335155widssssssssssssdt4444444444444444>             ",
"            .1111111111111111easssssssssssssiw222222222222222233515255253335355555wissssssssssssdpe44444444444444<<X            ",
"            %1111111111111112ifsssssssssssdiw22222222151212533331515155533555555554wpsssssssssssddy<<4444444444<<<<%            ",
"            O111111111111111easssssssssssdpw2222222225115555553555555525555555555533eassssssssssssae44444444<<<<<<<<            ",
"           X1111111111111111ufssssssssssdar22222222155555515515151555555555555335<445tsssssssssssssy4444<<<<<<<<<<<<#           ",
"           %111111111111513wpsssssssssssdy22222215552551551535552,55555555533<444444<5udssssssssssspw4<<<<<<<<<<<<<3&           ",
"           >111111111222122tsssssssssssdpw33133333333333333355555555555555,3,3,344444<eadsssssssssssr,<<<<<<<<<<<<<<>           ",
"          .2111112222222512isssssssssssst33333333333333355555555555555,33,3,3,3,4444444ysssssssssssdu<<<<<<<<<<<<<<<8X          ",
"          $111222222222213eassssssssssspw33333333333555555555553555,,3,3,3,3,3,3444<444wpssssssssssspw,<<<<<<<<<<<<<8%          ",
"          o222222222222231tsssssssssssst33333333355555555555555,5,553,3,3,3,3,3,4443444<ydsssssssssssr,<<<<<<<<<6<886o          ",
"          >222222222222213udssssssssssaw33333355555555555555,3,3,5,3,3,35,55,3,35<<<<<<<eassssssssssdy44<<<<<888<6<686          ",
"         .222222222222253wpsssssssssssi533555555555555553,,33,3,,53,3,3,55,,3,3,<<<<<<<5qidssssssssssi84<<9988<8<68886.         ",
"         X222251222211223eadssssssssssr55555555555553,,,,3,3,3,355,3,3,3,5,5,9,,<<<<<<<<4tdsssssssssdaw899998888688888#         ",
"         #222213222225551rssssssssssdae5555555333,3,53,33,3,3,3,,53,3,3,5,595595<<<<<<<<<easssssssssdae899998888688886%         ",
"         %113131255233333tddssssssssdpq5555533<45,3,3,3,3,3,55,3,5,55<<<,5<<<<<<858585<<8wpdssssssssssr888888888888888&         ",
"         o551333552533332yddssssssssdu5555<54444,3,3,3,3,3,3,55,5,599<<<,9<<<<<<585858<<<qidsssssssssdt<88888888866688*         ",
"         >513333525233333uddssssssssdy44444444443,3,5,,53,3,5,5,,59559<<59,<<<<<858585<888udsssssssssdy888888666666686>         ",
"         >553333352535554iddssssssssst4444444444,3,35,55,5,59599595,95<<95<<<<<<585588888<ydsssssssssdu8866666666666677         ",
"         5333333335555553idssssssssssr44444444443,,55,595,<<<<959<<<<<<<5,95<<<<<888<88<8<tdsssssssssdi6666666666666667         ",
"         <33335555555553widssssssssssr4444444444,35,95<<95<<<<59,,<<<<<<9959<999888868888<tdssssssssssi6666666666666667.        ",
"        .<355555555555553idssssssssssr<<4444444459,5,59<,59<<<,qtq,<<<<,59999999<688888888tdsssssssssdi6666666666677776.        ",
"        .533555555555555<idssssssssssr<544444<<<,55959,<59,<<<5qpuq,<<99999999998888888888tdsssssssssdi6666666777777776.        ",
"        .4<3<353<34444448idsssssssssft5,5<<<<<<<<<<<<<<<<<<<<<<qpfuq,999996,696,8888888866ydsssssssssdu9779777777777777.        ",
"         43333<44444443<5udsssssssssfy,5<<<<<<<<<<<<<<<<<<<<<<<qpfsuq699,69696968888666667udsssssssssdy7777777777777777#        ",
"         53<44444444444<5ydsssssssssfi5,<<<<<<<<<<<<<<<<<<<<888qpfssu0966969,6698666666690idsssssssssdt9777777777777777.        ",
"         <44444444444444<tssssssssssdpq,<<<<<<<<<<<<<<<<9<88<88qpssssu0,96,66666666666667wpdssssssssssr7777777777777779         ",
"         >5<4444444444445rsssssssssssae,<<<<<<<<<<<<<8<99999888qpsssssu069666666666666666rsssssssssssae7777777777777-7:         ",
"         >44444444444444<eassssssssssdt,<<<<<<<<<99988999999888qpdsssssu06666666666666687yssssssssssdpq7777777777-=7=7*         ",
"         o4444444444<<<<4qpdssssssssddi8<<<<<9<8999988888897888qpdssssssu0666666666666770idsssssssssdi0777777=-7--7-77*         ",
"         %4444434<<<<<<<<<udssssssssdfae8<<89998999988888888888qpdsssssssu06666666777777eafssssssssfdy7777=7-77=-7=7-7&         ",
"         $5<<<<<<<<<<<<<<<rsssdsssssssdy888<88<8998888888888877qpdssssssssu0666677777767ussssssssssssr;-67---7=777-77-%         ",
"         X<<<<<<<<<<<<<<<<eassssssssssspw8888888878888888787788qpssssssssssu0666777776-eafsssssssssspq;6---77=7--:7---#         ",
"         .<8<<<<<<<<<<<<<<8idssssssssssst8888888888888787878878qpdssssssssssu0677777777ydssssssssssdu;;;-77--7-77:7-7-.         ",
"          >5<<<<<<<<<<<<<58tsssssssssssfpw888888889777878787787qpdsssssssssssu07777777-tsdsssssssssfr;;;--7-7=7-77-7--          ",
"          &8<<<<5858<<<<<8<wpdssssssssssdu888887878787877878979qpdssssssssssssu0777766-6tsdsssssssdpq;;;7---7-7--77-7*          ",
"          $5<<<<8585<<<68888ydssssssssssssr87878787878788787777qpdsssssssssssssu0777-7---tsdssssssft;;;;-77-=7-77:7:-%          ",
"          .<<<<<588<88688888eadssssssssssdpe8787878787877877777qpdssssssssssssssu07--7-6;;tssssssspq;;;;-7-777-------X          ",
"           ><<8<888886<688888udsssssssssssspw878787878777777777qpdsssssssssssssssu07--6;;;=tssssssy-;;;;7---=-=---:7:           ",
"           %888<8888888888888easssssssssssssiq66787777777777777qpdssssssssssssssssu0;;;;;;;-tsssdpq;;;;;------------&           ",
"           X888888888888888887ysssssssssssssfiw6777777777777777qpdsssssssssssssssssu0;;;;;;;=tssst;;----------------#           ",
"            >88888888888877978qpdssssssssssssfpe777777777777777qpdssssssssssssssssssy0;;;;;;;-tsiq;----------------:            ",
"            %888888888898877877rassssssssssssssat0777777777798:qpdsssssssssssssssssssu0;;;;;;-=te-----------------7&            ",
"            .8888887878778787887yssssssssssssssssie777767787-77qpdssssssssssssssssssssu0;;--;---=------------------X            ",
"             *887878787887878777qidsssssssssssssssayw7---7:77:-qpdsssssssssssssssssssssu0---;-;------------------:*             ",
"             #8987878787787878776epdsssssssssssssssdpye0-77-7:7qpdssssssssssssssssssssssu0--;-;------------------7$             ",
"              *778787878877777776-radsssssssssssssssddaiyeq0-77qpdsssssssssssssssssssssssu0---------------------:*              ",
"              $77788787777777777666rafssssssssssssssssdddspiuyttasssssssssssssssssssssssssu0-------------------=:$              ",
"               *987777777777777776-=tassssssssssssssssssssdddddssssssssssssssssssssssssssssu0---------------====:               ",
"               #77777777777777777767-rasssssssssssssssssssssssssssssssssssssssssssssssssssssu0=;--------========$               ",
"                *7777777777777776-6-6-rpdssssssssssssssssssssssssssssssssssaissssssssssssssssu0=-----==========*                ",
"                X777777777777777--77;6-eissssssssssssssssssssssssssssssssssaeyddssssssssssssssu0========::0=:--#                ",
"                 %77777777777-=77-7-;;--qyadssssssssssssssssdssssssssssssssae:yfddsssssssssssssu0=======7:-=-:&                 ",
"                  *7777777-7=7=7----;;;;-;rpsdsssssssssssssssssssssssssssssae-0yssssssssssssssssu0======7:7:::.                 ",
"                  X=77-7=-7=7-7-77-7;;;;;-=qtpddssssssssssssssssssssssssssdae--:yssssssssssssssssu0=====:::-:#                  ",
"                   %77--7:-7:-7:--7--77-77-:7eyadddssssssssssssssssssssssssae--=0yssssssssssssssssu0========&                   ",
"                    *7-7777777777--77---:777:-:eyadddsssssssssssssssssssssfae--==0yssssdsssssssssssu0=====:*                    ",
"                    .-7--77:7--7-77--7-7--:7----;qrupsdddsddsssssssssssfssspe======yssddssfsssfssdssu0====:.                    ",
"                     X:-7:-7:77:-7----:7--------;*-=0ryipasdddddfffsssapiyrq========ysffdsdsfsddddddsu0==:#                     ",
"                      #77--777:7-6-----------------=-:=0qertyuiiiuuytreq==::========0tiuiuiiuiiuiiuiiur::$                      ",
"                       $:7-77----------------------=--==:-:==-===:=:::::============::::::::::::::::::::%                       ",
"                        $77:-------------------------=-=--=-=-======================:-::-:::=::::::::::%                        ",
"                         $---------------------------------=========================:-:-:::-::=::=::::%                         ",
"                          $-----------------------------==============================::::=:::::=::::%                          ",
"                           #------------------------================================::=:=:::=:=:::::$                           ",
"                            X:------------------================================::::::::::=::::::::#                            ",
"                             .*--------------===============================:::::::::::=:::::::::*.                             ",
"                               %=---------===============================:::::::::::::::::::::::&                               ",
"                                #*----===============================::::::::::::::::::::::::::#                                ",
"                                  &===============================:::::::::::::::::::::::::::&.                                 ",
"                                   X*=========================:::::::::::::::::::::::::::::*#                                   ",
"                                     $*====================::::::::::::::::::::::::::::::*$                                     ",
"                                       $*===============::::::::::::::::::::::::::::::::$                                       ",
"                                         #*========::::::::::::::::::::::::::::::::::*$                                         ",
"                                           X&:===::::::::::::::::::::::::::::::::::&X                                           ",
"                                              #&::=:::::::::::::::::::::::::::::&#                                              ",
"                                                 X$&::::::::::::::::::::::::&%X                                                 ",
"                                                     .#%&**::::::::::**&%#.                                                     ",
"                                                             ......                                                             ",
"                                                                                                                                ",
"                                                                                                                                ",
"                                                                                                                                ",
"                                                                                                                                ",
"                                                                                                                                ",
"                                                                                                                                ",
"                                                                                                                                ",
"                                                                                                                                "
};
